<mxfile host="app.diagrams.net" modified="2023-07-02T02:47:15.450Z" agent="Mozilla/5.0 (Windows NT 10.0; Win64; x64) AppleWebKit/537.36 (KHTML, like Gecko) Chrome/114.0.0.0 Safari/537.36" version="21.5.2" etag="TVN8kNUyMnEQiBFUfqAm" type="github">
  <diagram name="第1頁" id="OlODXsAz0My1lcviEtLB">
    <mxGraphModel>
      <root>
        <mxCell id="0" />
        <mxCell id="1" parent="0" />
      </root>
    </mxGraphModel>
  </diagram>
</mxfile>
